<svg width="50" height="50" viewBox="0 0 50 50" fill="none" xmlns="http://www.w3.org/2000/svg">
<path d="M25 0C11.1922 0 0 11.1922 0 25C0 38.8063 11.1922 50 25 50C38.8078 50 50 38.8063 50 25C50 11.1922 38.8078 0 25 0Z" fill="white"/>
<path d="M28.4781 13.8843C25.9938 14.789 24.4234 17.1203 24.6016 19.6718L24.6609 20.6562L23.6672 20.5359C20.05 20.0734 16.8891 18.5062 14.2047 15.8734L12.8922 14.5671L12.5563 15.5312C11.8406 17.6812 12.2984 19.9531 13.7891 21.4812C14.5844 22.325 14.4047 22.4453 13.0344 21.9437C12.5578 21.7828 12.1391 21.6625 12.1 21.7234C11.9609 21.864 12.4375 23.6921 12.8156 24.4171C13.3328 25.4234 14.3859 26.4062 15.5391 26.9906L16.5141 27.4531L15.3594 27.4703C14.2469 27.4703 14.2063 27.4906 14.3266 27.914C14.7234 29.2203 16.2938 30.6078 18.0438 31.2109L19.2766 31.6328L18.2031 32.2765C16.6125 33.2031 14.7438 33.725 12.875 33.7625C11.9797 33.7828 11.2438 33.8625 11.2438 33.9234C11.2438 34.1234 13.6703 35.2484 15.0797 35.6922C19.3141 36.9984 24.3438 36.4343 28.1203 34.2047C30.8047 32.6171 33.4875 29.4609 34.7406 26.4046C35.4172 24.7781 36.0922 21.8031 36.0922 20.3765C36.0922 19.4515 36.1516 19.3312 37.2641 18.2265C37.9203 17.5828 38.5359 16.8796 38.6563 16.6796C38.8563 16.2968 38.8344 16.2968 37.8219 16.639C36.1328 17.2421 35.8938 17.1625 36.7297 16.2578C37.3453 15.614 38.0813 14.4484 38.0813 14.1078C38.0813 14.0484 37.7828 14.1484 37.4453 14.3281C37.0875 14.5296 36.2922 14.8312 35.6953 15.0109L34.6219 15.3531L33.6484 14.6875C33.1109 14.3265 32.3578 13.9234 31.9594 13.8031C30.9438 13.5218 29.3938 13.5625 28.4781 13.8843Z" fill="#262626"/>
</svg>
